<?xml version="1.0" encoding="UTF-8"?>
<svg id="Layer_1" data-name="Layer 1" xmlns="http://www.w3.org/2000/svg" viewBox="0 0 24.34 8.22" width="24.34" height="8.22">
  <defs>
    <style>
      .cls-1 {
        fill: #2b2b2b;
      }
    </style>
  </defs>
  <path class="cls-1" d="M5.58,3.37l-1.24.73,1.24.83v1.52l-1.43.86-1.41.91-2.75-1.72v-1.61l1.29-.79-1.29-.85v-1.65l1.41-.78c-.04.2,0,1.64,0,1.64l1.37.81-1.4.84.02,1.63,2.78,1.45.03-1.5-1.28-.88,1.28-.77v-1.57S1.68.92,1.44.81L2.82.05l2.77,1.57v1.75Z"/>
  <g>
    <path class="cls-1" d="M7.68,5.8l2.31-3.32h.65l-2.31,3.32h-.65ZM7.68,6.18v-.38l.48-.12h2.44v.51h-2.92ZM7.81,2.6v-.51h2.84v.38l-.48.12h-2.36Z"/>
    <path class="cls-1" d="M12.4,6.24c-.28,0-.53-.06-.76-.19-.22-.13-.4-.3-.53-.52-.13-.22-.19-.47-.19-.75s.06-.52.19-.74c.13-.22.3-.39.52-.52.22-.13.46-.19.73-.19.26,0,.48.06.68.18.2.12.36.28.47.49.11.21.17.45.17.71,0,.04,0,.08,0,.13,0,.05-.01.1-.02.15h-2.36v-.44h2.08l-.19.17c0-.19-.03-.35-.1-.48-.07-.13-.16-.23-.28-.31-.12-.07-.27-.11-.44-.11s-.34.04-.48.12c-.14.08-.24.19-.32.33-.07.14-.11.31-.11.5s.04.37.12.52c.08.15.19.26.34.34.15.08.31.12.5.12.16,0,.3-.03.43-.08.13-.05.24-.14.34-.25l.34.35c-.14.16-.3.28-.49.36-.19.08-.4.12-.62.12Z"/>
    <path class="cls-1" d="M14.26,6.18v-2.8h.53v2.8h-.53ZM16.23,6.18v-1.63c0-.21-.07-.39-.2-.52-.13-.14-.3-.21-.52-.21-.14,0-.27.03-.38.09-.11.06-.2.15-.26.26-.06.11-.09.24-.09.38l-.22-.12c0-.21.05-.4.14-.57s.23-.3.39-.39c.17-.1.36-.14.57-.14s.4.05.56.16c.16.11.29.24.39.42.09.17.14.35.14.54v1.74h-.54Z"/>
    <path class="cls-1" d="M17.76,2.82c-.1,0-.18-.03-.24-.1-.06-.06-.09-.15-.09-.24s.03-.17.09-.24c.06-.06.14-.1.24-.1s.18.03.24.1c.06.06.09.14.09.24s-.03.18-.09.24-.14.1-.24.1ZM17.49,6.18v-2.8h.54v2.8h-.54Z"/>
    <path class="cls-1" d="M18.52,6.18l1.15-1.55.3.39-.83,1.17h-.62ZM20.64,6.18l-.87-1.22-.1-.09-1.11-1.48h.65l.79,1.09.1.08,1.18,1.63h-.64ZM20.15,4.86l-.31-.38.78-1.1h.62l-1.08,1.47Z"/>
    <path class="cls-1" d="M22.87,6.24c-.26,0-.49-.06-.7-.19-.21-.13-.37-.3-.49-.52-.12-.22-.18-.47-.18-.74s.06-.52.18-.74c.12-.22.28-.39.49-.52.21-.13.44-.19.7-.19.21,0,.4.04.57.13s.3.21.4.37.16.33.17.54v.84c-.01.2-.07.38-.17.54-.1.16-.23.28-.4.37-.17.09-.36.13-.57.13ZM22.96,5.74c.26,0,.47-.09.64-.27.16-.18.24-.41.24-.69,0-.19-.04-.36-.11-.5s-.18-.26-.31-.34-.29-.12-.46-.12-.33.04-.47.12-.24.2-.32.34c-.08.14-.11.31-.11.49s.04.35.11.5c.08.14.18.26.32.34.14.08.29.12.47.12ZM23.8,6.18v-.75l.1-.68-.1-.68v-.68h.54v2.8h-.54Z"/>
  </g>
</svg>